<?xml version="1.0" standalone="no"?>
<svg xmlns="http://www.w3.org/2000/svg" viewBox="0 0 412.08638437410343 244.80638437410346" width="412.08638437410343" height="244.80638437410346"><rect fill="#000000" width="412.08638437410343" height="244.80638437410346" x="0" y="0"></rect><g fill="white" color="white" transform="translate(12 12) scale(3.4500998)"><svg width="64.0" height="64.0" x="0.0" y="0.0" viewBox="0 0 64 64"><g><path d="M61.423,47.094L58,45.496V38c0.552,0,1-0.447,1-1v-4c0-0.553-0.448-1-1-1v-7c0-0.553-0.448-1-1-1h-8c-0.552,0-1,0.447-1,1   v7H34c-0.552,0-1,0.447-1,1v4c0,0.553,0.448,1,1,1v7.496l-3.423,1.597c-0.499,0.233-0.716,0.825-0.485,1.325l6,13   C36.255,61.773,36.61,62,37,62h18c0.39,0,0.745-0.227,0.908-0.581l6-13C62.139,47.919,61.922,47.327,61.423,47.094z M52,38v4.425   l-5.614-2.348C46.262,40.025,46.131,40,46,40s-0.262,0.025-0.386,0.077L40,42.425V38H52z M45,42.57v8.104l-10.77-3.078L45,42.57z    M47,42.57l10.77,5.026L47,50.674V42.57z M56,44.098l-2-0.836V38h2V44.098z M54.414,29L56,27.414v3.172L54.414,29z M53,27.586   L51.414,26h3.172L53,27.586z M51.586,29L50,30.586v-3.172L51.586,29z M53,30.414L54.586,32h-3.172L53,30.414z M35,34h14h8v2H35V34z    M38,38v5.261l-2,0.836V38H38z M32.67,49.232L45,52.755V60h-7.36L32.67,49.232z M54.36,60H47v-7.245l12.33-3.523L54.36,60z"></path><path d="M27,40h-6V16c1.654,0,3-1.346,3-3v-1h16v4.586l-3.706,3.706C36.112,20.473,36,20.723,36,21v8c0,0.553,0.448,1,1,1h8   c0.552,0,1-0.447,1-1v-8c0-0.277-0.112-0.527-0.294-0.708L42,16.586V12h1c0.552,0,1-0.447,1-1V7c0-0.553-0.448-1-1-1H24V5   c0-1.654-1.346-3-3-3h-6c-1.654,0-3,1.346-3,3v1H3C2.448,6,2,6.447,2,7v4c0,0.553,0.448,1,1,1h9v1c0,1.654,1.346,3,3,3v24h-2v-7v-8   c0-0.553-0.448-1-1-1H4c-0.552,0-1,0.447-1,1v8v7c-0.552,0-1,0.447-1,1v4v16c0,0.553,0.448,1,1,1h23c0.552,0,1-0.447,1-1V46   c0.552,0,1-0.447,1-1v-4C28,40.447,27.552,40,27,40z M39.586,25L38,26.586v-3.172L39.586,25z M39.414,22h3.172L41,23.586L39.414,22   z M41,26.414L42.586,28h-3.172L41,26.414z M42.414,25L44,23.414v3.172L42.414,25z M39.414,20L41,18.414L42.586,20H39.414z M26,44H4   v-2h8h4h4h6V44z M16,56v4h-3V46h3v4h2v-4h3v14h-3v-4H16z M11,46v14H8V46H11z M9.414,37L11,35.414v3.172L9.414,37z M9.586,40H6.414   L8,38.414L9.586,40z M9.586,34L8,35.586L6.414,34H9.586z M6.414,32L8,30.414L9.586,32H6.414z M9.414,29L11,27.414v3.172L9.414,29z    M8,27.586L6.414,26h3.172L8,27.586z M6.586,29L5,30.586v-3.172L6.586,29z M6.586,37L5,38.586v-3.172L6.586,37z M22,10h-3.02   C18.439,10,18,9.561,18,8.98C18,8.439,18.439,8,18.98,8H22V10z M42,10H24V8h18V10z M4,10V8h8v2H4z M14,13v-2V7V5   c0-0.552,0.449-1,1-1h6c0.551,0,1,0.448,1,1v1h-3.02C17.337,6,16,7.337,16,9.02c0,1.644,1.337,2.98,2.98,2.98H22v1   c0,0.552-0.449,1-1,1h-1h-4h-1C14.449,14,14,13.552,14,13z M17,16h2v24h-2V16z M4,46h2v14H4V46z M25,60h-2V46h2V60z"></path><rect x="16" y="52" width="2" height="2"></rect></g></svg></g><path fill="white" fill-rule="nonzero" d="M2.08 18.40Q3.32 18.40 4 19.16Q4.68 19.92 4.68 21.02Q4.68 22.12 4.32 22.80L4.32 22.80Q6.08 24.24 8.38 24.24Q10.68 24.24 11.84 23.18Q13.00 22.12 13.00 20.28Q13.00 18.44 11.72 17.12Q10.44 15.80 8.62 14.92Q6.80 14.04 5 13.06Q3.20 12.08 1.92 10.44Q0.64 8.80 0.64 6.56L0.64 6.56Q0.64 3.48 2.68 1.74Q4.72 0 7.92 0Q11.12 0 13.46 1.52Q15.80 3.04 15.80 5.62Q15.80 8.20 13.72 8.20L13.72 8.20Q12.48 8.20 11.80 7.44Q11.12 6.68 11.12 5.48Q11.12 4.28 11.60 3.64L11.60 3.64Q10.20 2.36 8.16 2.36Q6.12 2.36 5.10 3.40Q4.08 4.44 4.08 6Q4.08 7.56 5 8.66Q5.92 9.76 7.28 10.46Q8.64 11.16 10.24 12.06Q11.84 12.96 13.20 13.84Q14.56 14.72 15.48 16.22Q16.40 17.72 16.40 19.64L16.40 19.64Q16.40 22.80 14.22 24.80Q12.04 26.80 8.64 26.80Q5.24 26.80 2.62 25.22Q0 23.64 0 20.80L0 20.80Q0 18.40 2.08 18.40L2.08 18.40ZM24.08 2.92Q23.96 2.44 23.96 1.68Q23.96 0.92 24 0.68L24 0.68Q27.52 0.24 29.24 0.24Q30.96 0.24 32.16 0.64L32.16 0.64Q33.12 8.16 38.84 23.88L38.84 23.88L40.32 24Q40.40 24.88 40.40 25.22Q40.40 25.56 40.28 26.24L40.28 26.24Q39.16 26.20 36.80 26.20Q34.44 26.20 33.52 26.24L33.52 26.24Q33.40 25.64 33.40 25.10Q33.40 24.56 33.48 24L33.48 24L34.88 23.88Q34.68 22.92 34.24 21.10Q33.80 19.28 33.76 19.08L33.76 19.08Q31.48 18.96 28.82 18.96Q26.16 18.96 23.84 19.12L23.84 19.12L22.72 23.88L24.24 24Q24.32 24.88 24.32 25.22Q24.32 25.56 24.20 26.24L24.20 26.24Q23.24 26.20 21.06 26.20Q18.88 26.20 18.00 26.24L18.00 26.24Q17.88 25.64 17.88 25.10Q17.88 24.56 17.96 24L17.96 24L19.36 23.88Q24.16 10.72 25.68 3.04L25.68 3.04L24.08 2.92ZM24.56 16.32L24.56 16.32Q25.92 16.36 28.64 16.36Q31.36 16.36 33.04 16.24L33.04 16.24Q31.16 9.12 29.08 3.08L29.08 3.08L28.84 3.08Q26.48 8.80 24.56 16.32ZM59.68 20.40L59.68 20.40Q59.80 17.04 59.80 11.60Q59.80 6.16 59.44 2.84L59.44 2.84L57.96 2.72Q57.88 2.08 57.88 1.62Q57.88 1.16 58 0.48L58 0.48Q59.28 0.52 60.94 0.52Q62.60 0.52 63.84 0.48L63.84 0.48Q63.96 1.08 63.96 1.54Q63.96 2 63.88 2.72L63.88 2.72L62.48 2.84Q62.20 6.08 62.20 15.02Q62.20 23.96 62.88 26.12L62.88 26.12Q61.68 26.52 61.14 26.52Q60.60 26.52 59.24 26.44L59.24 26.44Q58.96 25.20 56.88 21.94Q54.80 18.68 51.70 14.16Q48.60 9.64 47.24 7.40L47.24 7.40Q47.20 9.12 47.20 14.40Q47.20 19.68 47.56 23.88L47.56 23.88L49.04 24Q49.12 24.64 49.12 25.10Q49.12 25.56 49 26.24L49 26.24Q47.72 26.20 46.04 26.20Q44.36 26.20 43.12 26.24L43.12 26.24Q43 25.64 43 25.18Q43 24.72 43.08 24L43.08 24L44.48 23.88Q44.80 19.56 44.80 12.94Q44.80 6.32 44.44 3.04L44.44 3.04L42.88 2.92Q42.76 2.36 42.76 1.68Q42.76 1 42.80 0.68L42.80 0.68Q46.20 0.60 47.84 0.48L47.84 0.48Q48.60 3.36 52.16 9.12Q55.72 14.88 59.68 20.40Z" transform="translate(247.807 12) scale(2.381)"></path><path fill="white" fill-rule="nonzero" d="M6.20 2.92Q6.08 2.44 6.08 1.68Q6.08 0.92 6.12 0.68L6.12 0.68Q9.64 0.24 11.36 0.24Q13.08 0.24 14.28 0.64L14.28 0.64Q15.24 8.16 20.96 23.88L20.96 23.88L22.44 24Q22.52 24.88 22.52 25.22Q22.52 25.56 22.40 26.24L22.40 26.24Q21.28 26.20 18.92 26.20Q16.56 26.20 15.64 26.24L15.64 26.24Q15.52 25.64 15.52 25.10Q15.52 24.56 15.60 24L15.60 24L17 23.88Q16.80 22.92 16.36 21.10Q15.92 19.28 15.88 19.08L15.88 19.08Q13.60 18.96 10.94 18.96Q8.28 18.96 5.96 19.12L5.96 19.12L4.84 23.88L6.36 24Q6.44 24.88 6.44 25.22Q6.44 25.56 6.32 26.24L6.32 26.24Q5.36 26.20 3.18 26.20Q1 26.20 0.12 26.24L0.12 26.24Q0 25.64 0 25.10Q0 24.56 0.08 24L0.08 24L1.48 23.88Q6.28 10.72 7.80 3.04L7.80 3.04L6.20 2.92ZM6.68 16.32L6.68 16.32Q8.04 16.36 10.76 16.36Q13.48 16.36 15.16 16.24L15.16 16.24Q13.28 9.12 11.20 3.08L11.20 3.08L10.96 3.08Q8.60 8.80 6.68 16.32ZM41.80 20.40L41.80 20.40Q41.92 17.04 41.92 11.60Q41.92 6.16 41.56 2.84L41.56 2.84L40.08 2.72Q40 2.08 40 1.62Q40 1.16 40.12 0.48L40.12 0.48Q41.40 0.52 43.06 0.52Q44.72 0.52 45.96 0.48L45.96 0.48Q46.08 1.08 46.08 1.54Q46.08 2 46 2.72L46 2.72L44.60 2.84Q44.32 6.08 44.32 15.02Q44.32 23.96 45 26.12L45 26.12Q43.80 26.52 43.26 26.52Q42.72 26.52 41.36 26.44L41.36 26.44Q41.08 25.20 39 21.94Q36.92 18.68 33.82 14.16Q30.72 9.64 29.36 7.40L29.36 7.40Q29.32 9.12 29.32 14.40Q29.32 19.68 29.68 23.88L29.68 23.88L31.16 24Q31.24 24.64 31.24 25.10Q31.24 25.56 31.12 26.24L31.12 26.24Q29.84 26.20 28.16 26.20Q26.48 26.20 25.24 26.24L25.24 26.24Q25.12 25.64 25.12 25.18Q25.12 24.72 25.20 24L25.20 24L26.60 23.88Q26.92 19.56 26.92 12.94Q26.92 6.32 26.56 3.04L26.56 3.04L25 2.92Q24.88 2.36 24.88 1.68Q24.88 1 24.92 0.68L24.92 0.68Q28.32 0.60 29.96 0.48L29.96 0.48Q30.72 3.36 34.28 9.12Q37.84 14.88 41.80 20.40ZM59.76 3.24L59.76 3.24Q59.48 6.36 59.48 13.26Q59.48 20.16 59.80 23.88L59.80 23.88L62.12 24.12Q62.20 24.76 62.20 25.14Q62.20 25.52 62.08 26.24L62.08 26.24Q60.64 26.20 57.94 26.20Q55.24 26.20 54.00 26.24L54.00 26.24Q53.88 25.64 53.88 25.24Q53.88 24.84 53.96 24.12L53.96 24.12L56.16 23.88Q56.48 19.60 56.48 13.02Q56.48 6.44 56.12 3.24L56.12 3.24Q54.56 3.28 51.80 3.52L51.80 3.52L51.68 6.48Q51.04 6.60 50.48 6.60Q49.92 6.60 49.44 6.56L49.44 6.56Q49.32 3.28 49.08 0.48L49.08 0.48L49.28 0.28Q52.24 0.64 58.76 0.64Q65.28 0.64 66.92 0.28L66.92 0.28L67.12 0.48Q66.84 3.56 66.76 6.16L66.76 6.16Q66.28 6.20 65.74 6.20Q65.20 6.20 64.52 6.08L64.52 6.08L64.40 3.40Q62.72 3.32 59.76 3.24ZM69.92 13.12L69.92 13.12Q69.92 0 79.74 0Q89.56 0 89.56 13.12L89.56 13.12Q89.56 15.52 89.38 17.32Q89.20 19.12 88.58 21Q87.96 22.88 86.92 24.08Q85.88 25.28 84.06 26.04Q82.24 26.80 79.74 26.80Q77.24 26.80 75.42 26.04Q73.60 25.28 72.56 24.08Q71.52 22.88 70.90 21Q70.28 19.12 70.10 17.32Q69.92 15.52 69.92 13.12ZM76.36 22.96L76.36 22.96Q77.72 23.84 79.74 23.84Q81.76 23.84 83.14 22.96Q84.52 22.08 85.20 20.44L85.20 20.44Q86.40 17.60 86.40 13.16L86.40 13.16Q86.40 2.36 79.74 2.36Q73.08 2.36 73.08 13.16L73.08 13.16Q73.08 20.88 76.36 22.96ZM111.08 20.40L111.08 20.40Q111.20 17.04 111.20 11.60Q111.20 6.16 110.84 2.84L110.84 2.84L109.36 2.72Q109.28 2.08 109.28 1.62Q109.28 1.16 109.40 0.48L109.40 0.48Q110.68 0.52 112.34 0.52Q114 0.52 115.24 0.48L115.24 0.48Q115.36 1.08 115.36 1.54Q115.36 2 115.28 2.72L115.28 2.72L113.88 2.84Q113.60 6.08 113.60 15.02Q113.60 23.96 114.28 26.12L114.28 26.12Q113.08 26.52 112.54 26.52Q112 26.52 110.64 26.44L110.64 26.44Q110.36 25.20 108.28 21.94Q106.20 18.68 103.10 14.16Q100.00 9.64 98.64 7.40L98.64 7.40Q98.60 9.12 98.60 14.40Q98.60 19.68 98.96 23.88L98.96 23.88L100.44 24Q100.52 24.64 100.52 25.10Q100.52 25.56 100.40 26.24L100.40 26.24Q99.12 26.20 97.44 26.20Q95.76 26.20 94.52 26.24L94.52 26.24Q94.40 25.64 94.40 25.18Q94.40 24.72 94.48 24L94.48 24L95.88 23.88Q96.20 19.56 96.20 12.94Q96.20 6.32 95.84 3.04L95.84 3.04L94.28 2.92Q94.16 2.36 94.16 1.68Q94.16 1 94.20 0.68L94.20 0.68Q97.60 0.60 99.24 0.48L99.24 0.48Q100.00 3.36 103.56 9.12Q107.12 14.88 111.08 20.40ZM127.36 2.72L125.84 2.84Q125.56 6.08 125.56 12.88Q125.56 19.68 125.92 23.88L125.92 23.88L127.36 24Q127.44 24.64 127.44 25.10Q127.44 25.56 127.32 26.24L127.32 26.24Q125.92 26.20 124.08 26.20Q122.24 26.20 120.88 26.24L120.88 26.24Q120.76 25.64 120.76 25.18Q120.76 24.72 120.84 24L120.84 24L122.24 23.88Q122.56 19.56 122.56 12.86Q122.56 6.16 122.20 2.84L122.20 2.84L120.84 2.72Q120.76 2.08 120.76 1.62Q120.76 1.16 120.88 0.48L120.88 0.48Q122.28 0.52 124.12 0.52Q125.96 0.52 127.32 0.48L127.32 0.48Q127.44 1.08 127.44 1.54Q127.44 2 127.36 2.72L127.36 2.72ZM132.64 13.12L132.64 13.12Q132.64 0 142.46 0Q152.28 0 152.28 13.12L152.28 13.12Q152.28 15.52 152.10 17.32Q151.92 19.12 151.30 21Q150.68 22.88 149.64 24.08Q148.60 25.28 146.78 26.04Q144.96 26.80 142.46 26.80Q139.96 26.80 138.14 26.04Q136.32 25.28 135.28 24.08Q134.24 22.88 133.62 21Q133 19.12 132.82 17.32Q132.64 15.52 132.64 13.12ZM139.08 22.96L139.08 22.96Q140.44 23.84 142.46 23.84Q144.48 23.84 145.86 22.96Q147.24 22.08 147.92 20.44L147.92 20.44Q149.12 17.60 149.12 13.16L149.12 13.16Q149.12 2.36 142.46 2.36Q135.80 2.36 135.80 13.16L135.80 13.16Q135.80 20.88 139.08 22.96Z" transform="translate(247.807 83.808) scale(1)"></path><path fill="white" fill-rule="nonzero" d="M7.36 12.96L7.36 12.96Q8.52 14.12 10.14 14.12Q11.76 14.12 12.76 13.12L12.76 13.12Q14.36 11.48 14.36 8.24L14.36 8.24Q14.36 2.28 9.08 2.28L9.08 2.28Q7.40 2.28 5.32 3.16L5.32 3.16Q5.04 6.32 5.04 13.00Q5.04 19.68 5.40 23.88L5.40 23.88L7.68 24.04Q7.76 24.68 7.76 25.20Q7.76 25.72 7.64 26.24L7.64 26.24Q6.20 26.20 3.90 26.20Q1.60 26.20 0.36 26.24L0.36 26.24Q0.24 25.64 0.24 25.18Q0.24 24.72 0.32 24L0.32 24L1.72 23.88Q2.04 19.60 2.04 12.94Q2.04 6.28 1.64 3.04L1.64 3.04L0.12 2.92Q0 2.36 0 1.68Q0 1 0.04 0.68L0.04 0.68Q1.72 0.60 4.64 0.32L4.64 0.32Q6.68 0 9.12 0L9.12 0Q13.84 0 15.84 2.14Q17.84 4.28 17.84 8.14Q17.84 12.00 15.82 14.40Q13.80 16.80 9.68 16.80L9.68 16.80Q8.08 16.80 6.52 16.20L6.52 16.20Q6.52 15.12 6.80 14.20Q7.08 13.28 7.36 12.96ZM20.84 13.12L20.84 13.12Q20.84 0 30.66 0Q40.48 0 40.48 13.12L40.48 13.12Q40.48 15.52 40.30 17.32Q40.12 19.12 39.50 21Q38.88 22.88 37.84 24.08Q36.80 25.28 34.98 26.04Q33.16 26.80 30.66 26.80Q28.16 26.80 26.34 26.04Q24.52 25.28 23.48 24.08Q22.44 22.88 21.82 21Q21.20 19.12 21.02 17.32Q20.84 15.52 20.84 13.12ZM27.28 22.96L27.28 22.96Q28.64 23.84 30.66 23.84Q32.68 23.84 34.06 22.96Q35.44 22.08 36.12 20.44L36.12 20.44Q37.32 17.60 37.32 13.16L37.32 13.16Q37.32 2.36 30.66 2.36Q24 2.36 24 13.16L24 13.16Q24 20.88 27.28 22.96ZM52.64 12.24L52.64 12.24Q53.80 13.32 55.58 13.32Q57.36 13.32 58.50 11.82Q59.64 10.32 59.64 7.84L59.64 7.84Q59.64 2.28 54.36 2.28L54.36 2.28Q52.56 2.28 50.60 3.08L50.60 3.08Q50.32 6.56 50.32 12.96Q50.32 19.36 50.68 23.88L50.68 23.88L52.16 24Q52.24 24.88 52.24 25.22Q52.24 25.56 52.12 26.24L52.12 26.24Q50.96 26.20 48.72 26.20Q46.48 26.20 45.64 26.24L45.64 26.24Q45.52 25.64 45.52 25.10Q45.52 24.56 45.60 24L45.60 24L47 23.88Q47.32 19.48 47.32 12.84Q47.32 6.20 46.92 3.04L46.92 3.04L45.40 2.92Q45.28 2.44 45.28 1.68Q45.28 0.92 45.32 0.68L45.32 0.68Q48 0.60 50.04 0.30Q52.08 0 54.40 0L54.40 0Q63.12 0 63.12 7.84L63.12 7.84Q63.12 11.00 61.56 13.04Q60 15.08 57.20 15.60L57.20 15.60Q61.16 21.88 62.68 23.68L62.68 23.68L64.56 23.80Q64.64 24.44 64.64 24.98Q64.64 25.52 64.52 26.12L64.52 26.12Q60.88 26.24 59.44 26.32L59.44 26.32L59.28 25.88Q58.60 24.20 57.62 22.38Q56.64 20.56 53.52 15.68L53.52 15.68Q52.68 15.64 51.80 15.24L51.80 15.24Q51.80 14.44 52.06 13.50Q52.32 12.56 52.64 12.24ZM76.52 3.24L76.52 3.24Q76.24 6.36 76.24 13.26Q76.24 20.16 76.56 23.88L76.56 23.88L78.88 24.12Q78.96 24.76 78.96 25.14Q78.96 25.52 78.84 26.24L78.84 26.24Q77.40 26.20 74.70 26.20Q72 26.20 70.76 26.24L70.76 26.24Q70.64 25.64 70.64 25.24Q70.64 24.84 70.72 24.12L70.72 24.12L72.92 23.88Q73.24 19.60 73.24 13.02Q73.24 6.44 72.88 3.24L72.88 3.24Q71.32 3.28 68.56 3.52L68.56 3.52L68.44 6.48Q67.80 6.60 67.24 6.60Q66.68 6.60 66.20 6.56L66.20 6.56Q66.08 3.28 65.84 0.48L65.84 0.48L66.04 0.28Q69 0.64 75.52 0.64Q82.04 0.64 83.68 0.28L83.68 0.28L83.88 0.48Q83.60 3.56 83.52 6.16L83.52 6.16Q83.04 6.20 82.50 6.20Q81.96 6.20 81.28 6.08L81.28 6.08L81.16 3.40Q79.48 3.32 76.52 3.24Z" transform="translate(247.807 118.608) scale(1.816)"></path><path fill="white" fill-rule="nonzero" d="M15.52 8.20Q14.28 8.20 13.60 7.44Q12.92 6.68 12.92 5.46Q12.92 4.24 13.44 3.56L13.44 3.56Q12.16 2.36 9.92 2.36L9.92 2.36Q6.64 2.36 4.96 5.10Q3.28 7.84 3.28 13.16L3.28 13.16Q3.28 23.84 9.92 23.84L9.92 23.84Q11.52 23.84 13.18 23.06Q14.84 22.28 16 21L16 21Q17.24 22 17.60 24.16L17.60 24.16Q14.04 26.80 9.92 26.80L9.92 26.80Q4.68 26.80 2.34 23.56Q0 20.32 0 13.48L0 13.48Q0 0 9.92 0L9.92 0Q12.92 0 15.26 1.58Q17.60 3.16 17.60 5.68Q17.60 8.20 15.52 8.20L15.52 8.20ZM28.84 2.72L27.32 2.84Q27.04 6.08 27.04 12.88Q27.04 19.68 27.40 23.88L27.40 23.88L28.84 24Q28.92 24.64 28.92 25.10Q28.92 25.56 28.80 26.24L28.80 26.24Q27.40 26.20 25.56 26.20Q23.72 26.20 22.36 26.24L22.36 26.24Q22.24 25.64 22.24 25.18Q22.24 24.72 22.32 24L22.32 24L23.72 23.88Q24.04 19.56 24.04 12.86Q24.04 6.16 23.68 2.84L23.68 2.84L22.32 2.72Q22.24 2.08 22.24 1.62Q22.24 1.16 22.36 0.48L22.36 0.48Q23.76 0.52 25.60 0.52Q27.44 0.52 28.80 0.48L28.80 0.48Q28.92 1.08 28.92 1.54Q28.92 2 28.84 2.72L28.84 2.72ZM43.20 3.24L43.20 3.24Q42.92 6.36 42.92 13.26Q42.92 20.16 43.24 23.88L43.24 23.88L45.56 24.12Q45.64 24.76 45.64 25.14Q45.64 25.52 45.52 26.24L45.52 26.24Q44.08 26.20 41.38 26.20Q38.68 26.20 37.44 26.24L37.44 26.24Q37.32 25.64 37.32 25.24Q37.32 24.84 37.40 24.12L37.40 24.12L39.60 23.88Q39.92 19.60 39.92 13.02Q39.92 6.44 39.56 3.24L39.56 3.24Q38 3.28 35.24 3.52L35.24 3.52L35.12 6.48Q34.48 6.60 33.92 6.60Q33.36 6.60 32.88 6.56L32.88 6.56Q32.76 3.28 32.52 0.48L32.52 0.48L32.72 0.28Q35.68 0.64 42.20 0.64Q48.72 0.64 50.36 0.28L50.36 0.28L50.56 0.48Q50.28 3.56 50.20 6.16L50.20 6.16Q49.72 6.20 49.18 6.20Q48.64 6.20 47.96 6.08L47.96 6.08L47.84 3.40Q46.16 3.32 43.20 3.24ZM65.76 2.84L64.28 2.72Q64.20 2.08 64.20 1.62Q64.20 1.16 64.32 0.48L64.32 0.48Q65.60 0.52 67.50 0.52Q69.40 0.52 70.80 0.48L70.80 0.48Q70.92 1.16 70.92 1.74Q70.92 2.32 70.84 2.72L70.84 2.72L69.44 2.84Q63.96 14.64 62.96 18.44L62.96 18.44Q63.08 21.48 63.28 23.88L63.28 23.88L64.72 24Q64.80 24.64 64.80 25.10Q64.80 25.56 64.68 26.24L64.68 26.24Q63.28 26.20 61.44 26.20Q59.60 26.20 58.24 26.24L58.24 26.24Q58.12 25.64 58.12 25.18Q58.12 24.72 58.20 24L58.20 24L59.60 23.88Q59.84 20.40 59.88 18.36L59.88 18.36Q58.84 14.92 54.28 5.80L54.28 5.80Q53.00 3.32 52.76 2.84L52.76 2.84L51.28 2.72Q51.20 2.08 51.20 1.62Q51.20 1.16 51.32 0.48L51.32 0.48Q52.72 0.52 54.78 0.52Q56.84 0.52 58.20 0.48L58.20 0.48Q58.32 1.08 58.32 1.54Q58.32 2 58.24 2.72L58.24 2.72L56.80 2.84Q57.56 5.68 59.32 9.52Q61.08 13.36 61.56 14.48L61.56 14.48L61.72 14.48Q62.80 12.40 64 9.06Q65.20 5.72 65.76 2.84L65.76 2.84Z" transform="translate(247.807 175.262) scale(2.148)"></path></svg>